{"title":"The Dead Room (HD).2015.WEBRip.RR.mp4","uid":14245628,"size":2678421085,"categoryP":"video","categoryS":"movies","magnet":"?xt=urn:btih:142f684f6d4c1a92c95353df378d2a21ab6570fd&amp;dn=The+Dead+Room+%28HD%29.2015.WEBRip.RR.mp4&amp;tr=udp%3A%2F%2Ftracker.leechers-paradise.org%3A6969&amp;tr=udp%3A%2F%2Fzer0day.ch%3A1337&amp;tr=udp%3A%2F%2Fopen.demonii.com%3A1337&amp;tr=udp%3A%2F%2Ftracker.coppersurfer.tk%3A6969&amp;tr=udp%3A%2F%2Fexodus.desync.com%3A6969","seeders":1,"leechers":0,"uploader":"RadioResearch","files":1,"time":1460159004,"description":"Step inside the Dead Room, where something sinister guards a home's horrifying secrets. Inspired by a 1970s urban legend, this atmospheric nerve-shredder follows two scientists (Jeffrey Thomas &amp; Jed Brophy) and a young psychic (Laura Petersen) as they travel to the countryside to investigate mysterious goings on at a remote farmhouse. Skepticism quickly turns to terror, as the researchers' presence unsettles a seriously angry demonic presence possessing the home. Upping the haunted house movie ante with visceral camerawork and unsettling sound-design, The Dead Room creates a sense of palpable danger lurking in every corner and hallway.\r\n\r\nThanks to iTunes!  ;-)\r\n\r\n\r\nEnjoy and seed!\r\nRR\r\n\r\nTrailer is here:\r\n\r\nScreencaps:  http://i.imgur.com/6H9fk58.jpg\r\n\r\nVideo\r\nID                                       : 3\r\nFormat                                   : AVC\r\nFormat/Info                              : Advanced Video Codec\r\nFormat profile                           :   \r\nFormat settings, CABAC                   : No\r\nFormat settings, ReFrames                : 2 frames\r\nFormat settings, GOP                     : M=2, N=90\r\nCodec ID                                 : avc1\r\nCodec ID/Info                            : Advanced Video Coding\r\nDuration                                 : 1h 18mn\r\nBit rate                                 : 4 046 Kbps\r\nWidth                                    : 1 280 pixels\r\nHeight                                   : 530 pixels\r\nDisplay aspect ratio                     : 2.40:1\r\nFrame rate mode                          : Variable\r\nFrame rate                               : 23.976 fps\r\nMinimum frame rate                       : 23.976 fps\r\nMaximum frame rate                       : 66.482 fps\r\nColor space                              : YUV\r\nChroma subsampling                       : 4:2:0\r\nBit depth                                : 8 bits\r\nScan type                                : Progressive\r\nBits/(Pixel*Frame)                       : 0.249\r\nStream size                              : 2.21 GiB (89%)\r\nLanguage                                 : English\r\nEncoded date                             : UTC 2016-04-08 16:09:13\r\nTagged date                              : UTC 2016-04-08 16:09:54\r\nColor range                              : Limited\r\nColor primaries                          : BT.709\r\nTransfer characteristics                 : BT.709\r\nMatrix coefficients                      : BT.709\r\n\r\nAudio #1\r\nID                                       : 1\r\nFormat                                   : AAC\r\nFormat/Info                              : Advanced Audio Codec\r\nFormat profile                           : LC\r\nCodec ID                                 : 40\r\nDuration                                 : 1h 18mn\r\nDuration_LastFrame                       : -5ms\r\nBit rate mode                            : Variable\r\nBit rate                                 : 127 Kbps\r\nMaximum bit rate                         : 227 Kbps\r\nChannel(s)                               : 2 channels\r\nChannel positions                        : Front: L R\r\nSampling rate                            : 48.0 KHz\r\nFrame rate                               : 46.875 fps (1024 spf)\r\nCompression mode                         : Lossy\r\nStream size                              : 70.9 MiB (3%)\r\nLanguage                                 : English\r\nDefault                                  : Yes\r\nAlternate group                          : 1\r\nEncoded date                             : UTC 2016-04-08 16:04:35\r\nTagged date                              : UTC 2016-04-08 16:07:27\r\nMenus                                    : 5\r\n\r\nAudio #2\r\nID                                       : 2\r\nFormat                                   : AC-3\r\nFormat/Info                              : Audio Coding 3\r\nMode extension                           : CM (complete main)\r\nFormat settings, Endianness              : Big\r\nCodec ID                                 : ac-3\r\nDuration                                 : 1h 18mn\r\nDuration_LastFrame                       : -16ms\r\nBit rate mode                            : Constant\r\nBit rate                                 : 384 Kbps\r\nChannel(s)                               : 6 channels\r\nChannel positions                        : Front: L C R, Side: L R, LFE\r\nSampling rate                            : 48.0 KHz\r\nFrame rate                               : 31.250 fps (1536 spf)\r\nBit depth                                : 16 bits\r\nCompression mode                         : Lossy\r\nStream size                              : 215 MiB (8%)\r\nLanguage                                 : English\r\nDefault                                  : No\r\nAlternate group                          : 1\r\nEncoded date                             : UTC 2016-04-08 16:07:27\r\nTagged date                              : UTC 2016-04-08 16:09:13\r\n\r\nText\r\nID                                       : 4-CC1\r\nFormat                                   : EIA-608\r\nMuxing mode                              : Final Cut\r\nCodec ID                                 : c608\r\nDuration                                 : 1h 17mn\r\nBit rate mode                            : Constant\r\nStream size                              : 0.00 Byte (0%)\r\nLanguage                                 : English\r\nDefault                                  : No\r\nForced                                   : No\r\nAlternate group                          : 2\r\nEncoded date                             : UTC 2016-04-08 16:09:55\r\nTagged date                              : UTC 2016-04-08 16:09:58\r\n\r\nMenu\r\nID                                       : 5\r\nCodec ID                                 : text\r\nDuration                                 : 1h 18mn\r\nEncoded date                             : UTC 2016-04-08 16:09:59\r\nTagged date                              : UTC 2016-04-08 16:09:59\r\nBit rate mode                            : CBR\r\nMenu For                                 : 1\r\n00:00:00.000                             : 1\r\n00:12:35.000                             : 2\r\n00:23:11.000                             : 3\r\n00:36:27.000                             : 4\r\n00:46:00.000                             : 5\r\n00:56:46.000                             : 6\r\n01:06:25.000                             : 7\r\n01:15:19.000                             : 8","torrent":{"xt":"urn:btih:142f684f6d4c1a92c95353df378d2a21ab6570fd","amp;dn":"The+Dead+Room+%28HD%29.2015.WEBRip.RR.mp4","amp;tr":["udp%3A%2F%2Ftracker.leechers-paradise.org%3A6969","udp%3A%2F%2Fzer0day.ch%3A1337","udp%3A%2F%2Fopen.demonii.com%3A1337","udp%3A%2F%2Ftracker.coppersurfer.tk%3A6969","udp%3A%2F%2Fexodus.desync.com%3A6969"],"infoHash":"142f684f6d4c1a92c95353df378d2a21ab6570fd","infoHashBuffer":{"type":"Buffer","data":[20,47,104,79,109,76,26,146,201,83,83,223,55,141,42,33,171,101,112,253]},"announce":[],"urlList":[]}}